<svg width="280" height="301" viewBox="0 0 280 301" fill="none" xmlns="http://www.w3.org/2000/svg">
<path d="M189.611 195L223 174.852V40L189 59.5391L189.611 195Z" fill="#4F62F6"/>
<path d="M190 195L156 175.461V40L190 59.5386V195Z" fill="#342CA3"/>
<path d="M157 40.5L190 60L223 40.5L190 21L157 40.5Z" fill="#598FF8"/>
<path d="M144 221L177 201.505V40L144 59.4949V221Z" fill="#D6D2CD"/>
<path d="M144 221L110 201.527V40L144 59.4736V221Z" fill="#C1BDB9"/>
<path d="M110 39.5L143.483 59L177 39.5L143.483 20L110 39.5Z" fill="#E7E5E3"/>
<path d="M98 248L132 227.628V40L98 59.513V248Z" fill="#313238"/>
<path d="M64 40.5L98.0175 60L132 40.5L98.0175 21L64 40.5Z" fill="#515258"/>
<path d="M98 248L64 228.493V40L98 59.5067V248Z" fill="#17181A"/>
<path d="M53 272L87 252.475V143L53 162.525V272Z" fill="#4F62F6"/>
<path d="M19 143.5L53 163L87 143.5L53 124L19 143.5Z" fill="#598FF8"/>
<path d="M53 271L19 251.487V143L53 162.513V271Z" fill="#342CA3"/>
<path d="M66.246 244.84L40 258.112L52.033 264L79.0656 250.065L129.508 174.669L172.704 171.932L223.147 89.0708L258 76.8425L229.681 68V73.895L203.918 86.5825L162.393 163.471H115.017L66.246 244.84Z" fill="#84D6D7"/>
<path d="M239.857 99L241.572 91.8627L243 86L229 95.6863L239.857 99Z" fill="#35999A"/>
<path fill-rule="evenodd" clip-rule="evenodd" d="M219.952 104.89L248 88.2956L240.954 75L206.426 91.4163L165.421 169.226H120.244L69.436 251.043L44 263.663L50.6623 278L82.378 263.663L130.373 187.507H176.414L219.952 104.89Z" fill="#56ADAE"/>
<path d="M240 98V72L260 76.8598L240 98Z" fill="#56ADAE"/>
<path d="M51 263.151L40 258V272.544L51 278V263.151Z" fill="#35999A"/>
</svg>
